HIERARCHY
ROOT hip
{
  OFFSET 0 0 0
  CHANNELS 6 Xposition Yposition Zposition Zrotation Yrotation Xrotation
  JOINT abdomen
  {
    OFFSET 0 20.6881 -0.73152
    CHANNELS 3 Zrotation Xrotation Yrotation
    JOINT chest
    {
      OFFSET 0 11.7043 -0.48768
      CHANNELS 3 Zrotation Xrotation Yrotation
      JOINT neck
      {
        OFFSET 0 22.1894 -2.19456
        CHANNELS 3 Zrotation Xrotation Yrotation
        JOINT head
        {
          OFFSET -0.24384 7.07133 1.2192
          CHANNELS 3 Zrotation Xrotation Yrotation
          JOINT leftEye
          {
            OFFSET 4.14528 8.04674 8.04672
            CHANNELS 3 Zrotation Xrotation Yrotation
            End Site
            {
              OFFSET 1 0 0
            }
          }
          JOINT rightEye
          {
            OFFSET -3.6576 8.04674 8.04672
            CHANNELS 3 Zrotation Xrotation Yrotation
            End Site
            {
              OFFSET 1 0 0
            }
          }
        }
      }
      JOINT rCollar
      {
        OFFSET -2.68224 19.2634 -4.8768
        CHANNELS 3 Zrotation Xrotation Yrotation
        JOINT rShldr
        {
          OFFSET -8.77824 -1.95073 1.46304
          CHANNELS 3 Zrotation Xrotation Yrotation
          JOINT rForeArm
          {
            OFFSET -28.1742 -1.7115 0.48768
            CHANNELS 3 Zrotation Xrotation Yrotation
            JOINT rHand
            {
              OFFSET -22.5879 0.773209 7.07136
              CHANNELS 3 Zrotation Xrotation Yrotation
              JOINT rThumb1
              {
                OFFSET -1.2192 -0.487915 3.41376
                CHANNELS 3 Zrotation Xrotation Yrotation
                JOINT rThumb2
                {
                  OFFSET -3.37035 -0.52449 3.41376
                  CHANNELS 3 Zrotation Xrotation Yrotation
                  End Site
                  {
                    OFFSET -1.78271 -1.18214 1.43049
                  }
                }
              }
              JOINT rIndex1
              {
                OFFSET -7.75947 0.938293 5.60832
                CHANNELS 3 Zrotation Xrotation Yrotation
                JOINT rIndex2
                {
                  OFFSET -2.54057 -0.884171 1.56538
                  CHANNELS 3 Zrotation Xrotation Yrotation
                  End Site
                  {
                    OFFSET -1.62519 -0.234802 1.16502
                  }
                }
              }
              JOINT rMid1
              {
                OFFSET -8.24714 1.18213 3.41376
                CHANNELS 3 Zrotation Xrotation Yrotation
                JOINT rMid2
                {
                  OFFSET -3.10165 -0.590103 1.0647
                  CHANNELS 3 Zrotation Xrotation Yrotation
                  End Site
                  {
                    OFFSET -2.48547 -0.328903 0.83742
                  }
                }
              }
              JOINT rRing1
              {
                OFFSET -8.82822 0.546677 1.51678
                CHANNELS 3 Zrotation Xrotation Yrotation
                JOINT rRing2
                {
                  OFFSET -2.60934 -0.819778 -0.0198488
                  CHANNELS 3 Zrotation Xrotation Yrotation
                  End Site
                  {
                    OFFSET -2.33842 -0.294052 0.168128
                  }
                }
              }
              JOINT rPinky1
              {
                OFFSET -8.27202 -0.0477905 -0.4584
                CHANNELS 3 Zrotation Xrotation Yrotation
                JOINT rPinky2
                {
                  OFFSET -1.82734 -0.647385 -0.700984
                  CHANNELS 3 Zrotation Xrotation Yrotation
                  End Site
                  {
                    OFFSET -1.69225 -0.51767 -0.607171
                  }
                }
              }
            }
          }
        }
      }
      JOINT lCollar
      {
        OFFSET 2.68224 19.2634 -4.8768
        CHANNELS 3 Zrotation Xrotation Yrotation
        JOINT lShldr
        {
          OFFSET 8.77824 -1.95073 1.46304
          CHANNELS 3 Zrotation Xrotation Yrotation
          JOINT lForeArm
          {
            OFFSET 28.1742 -1.7115 0.48768
            CHANNELS 3 Zrotation Xrotation Yrotation
            JOINT lHand
            {
              OFFSET 22.5879 0.773209 7.07136
              CHANNELS 3 Zrotation Xrotation Yrotation
              JOINT lThumb1
              {
                OFFSET 1.2192 -0.487915 3.41376
                CHANNELS 3 Zrotation Xrotation Yrotation
                JOINT lThumb2
                {
                  OFFSET 3.37035 -0.52449 3.41376
                  CHANNELS 3 Zrotation Xrotation Yrotation
                  End Site
                  {
                    OFFSET 1.78271 -1.18214 1.43049
                  }
                }
              }
              JOINT lIndex1
              {
                OFFSET 7.75947 0.938293 5.60832
                CHANNELS 3 Zrotation Xrotation Yrotation
                JOINT lIndex2
                {
                  OFFSET 2.54057 -0.884171 1.56538
                  CHANNELS 3 Zrotation Xrotation Yrotation
                  End Site
                  {
                    OFFSET 1.62519 -0.234802 1.16502
                  }
                }
              }
              JOINT lMid1
              {
                OFFSET 8.24714 1.18213 3.41376
                CHANNELS 3 Zrotation Xrotation Yrotation
                JOINT lMid2
                {
                  OFFSET 3.10165 -0.590103 1.0647
                  CHANNELS 3 Zrotation Xrotation Yrotation
                  End Site
                  {
                    OFFSET 2.48547 -0.328903 0.83742
                  }
                }
              }
              JOINT lRing1
              {
                OFFSET 8.82822 0.546677 1.51678
                CHANNELS 3 Zrotation Xrotation Yrotation
                JOINT lRing2
                {
                  OFFSET 2.60934 -0.819778 -0.0198488
                  CHANNELS 3 Zrotation Xrotation Yrotation
                  End Site
                  {
                    OFFSET 2.33842 -0.294052 0.168128
                  }
                }
              }
              JOINT lPinky1
              {
                OFFSET 8.27202 -0.0477905 -0.4584
                CHANNELS 3 Zrotation Xrotation Yrotation
                JOINT lPinky2
                {
                  OFFSET 1.82734 -0.647385 -0.700984
                  CHANNELS 3 Zrotation Xrotation Yrotation
                  End Site
                  {
                    OFFSET 1.69225 -0.51767 -0.607171
                  }
                }
              }
            }
          }
        }
      }
    }
  }
  JOINT rButtock
  {
    OFFSET -8.77824 4.35084 1.2192
    CHANNELS 3 Zrotation Xrotation Yrotation
    JOINT rThigh
    {
      OFFSET 0 -1.70687 -2.19456
      CHANNELS 3 Zrotation Xrotation Yrotation
      JOINT rShin
      {
        OFFSET 0 -36.8199 0.73152
        CHANNELS 3 Zrotation Xrotation Yrotation
        JOINT rFoot
        {
          OFFSET 0.73152 -45.1104 -5.12064
          CHANNELS 3 Zrotation Xrotation Yrotation
          End Site
          {
            OFFSET -1.1221 -3.69964 12.103
          }
        }
      }
    }
  }
  JOINT lButtock
  {
    OFFSET 8.77824 4.35084 1.2192
    CHANNELS 3 Zrotation Xrotation Yrotation
    JOINT lThigh
    {
      OFFSET 0 -1.70687 -2.19456
      CHANNELS 3 Zrotation Xrotation Yrotation
      JOINT lShin
      {
        OFFSET 0 -36.8199 0.73152
        CHANNELS 3 Zrotation Xrotation Yrotation
        JOINT lFoot
        {
          OFFSET -0.73152 -45.1104 -5.12064
          CHANNELS 3 Zrotation Xrotation Yrotation
          End Site
          {
            OFFSET 1.1221 -3.69964 12.103
          }
        }
      }
    }
  }
}
MOTION
Frames:	4
Frame Time:	0.00833333
-1.52857 83.5515 32.6516 -1.4708 9.595 15.15 9.57776 24.6935 -5.8806 8.23419 -7.83594 -0.479151 -1.2976 18.2511 -13.0636 27.2062 -20.8916 -20.4114 -0.0 0.0 0.0 -0.0 0.0 0.0 3.6944e-14 -1.87715e-13 -1.08581e-13 -0.553373 13.4999 73.6621 -26.2908 -24.214 57.8977 -0.0395989 5.64571 0.796079 6.37415e-10 3.21649e-09 1.5758e-09 1.10613e-09 5.57318e-09 2.72373e-09 6.37416e-10 3.21649e-09 1.57579e-09 7.73091 5.47488 0.417314 6.37414e-10 3.21649e-09 1.5758e-09 2.90554 0.965183 0.102902 6.37417e-10 3.21648e-09 1.57581e-09 10.2786 0.731801 0.0259123 6.37408e-10 3.21649e-09 1.57581e-09 2.22167 -0.733487 -0.20892 3.68337e-14 -1.8774e-13 -1.08734e-13 -62.5784 46.6938 -25.2339 27.8512 -41.1438 -85.9904 0.00557645 2.14582 -0.301715 -1.67601e-09 2.04191e-08 3.00636e-09 -2.88562e-09 3.52748e-08 5.19748e-09 -1.67601e-09 2.04191e-08 3.00636e-09 -7.73091 5.47488 -0.417314 -1.67601e-09 2.04191e-08 3.00636e-09 -2.90554 0.965183 -0.102902 -1.67601e-09 2.04191e-08 3.00636e-09 -10.2786 0.731801 -0.0259123 -1.676e-09 2.04191e-08 3.00635e-09 -2.22167 -0.733487 0.20892 -2.03217e-16 0.0 -3.88251e-19 -6.66377 -13.968 -5.05076 0.00524385 8.17298 0.278232 -6.16874 -16.7556 -17.7501 2.03217e-16 0.0 3.88251e-19 5.33268 -33.1571 -8.27546 0.177971 31.5729 -0.621081 1.59538 -12.6585 5.67276
-1.53159 83.5584 32.6559 -1.4745 9.5599 15.2779 9.58163 24.655 -5.82146 8.08549 -7.8191 -0.475012 -1.37136 18.2553 -13.181 26.3936 -22.7085 -20.451 -0.0 0.0 0.0 -0.0 0.0 0.0 2.66148e-14 -1.89039e-13 -9.33108e-14 0.624796 13.7628 72.6929 -26.7272 -25.5106 60.0352 -0.038475 5.51824 0.778035 -3.70859e-10 1.21314e-09 2.11834e-09 -6.36379e-10 2.10946e-09 3.66745e-09 -3.70857e-10 1.21315e-09 2.11832e-09 7.73091 5.47488 0.417314 -3.7086e-10 1.21315e-09 2.11833e-09 2.90554 0.965183 0.102902 -3.70858e-10 1.21314e-09 2.11834e-09 10.2786 0.731801 0.0259123 -3.70865e-10 1.21315e-09 2.11834e-09 2.22167 -0.733487 -0.20892 2.6565e-14 -1.89049e-13 -9.34785e-14 -62.656 46.7016 -25.069 27.7911 -41.4103 -86.4777 0.00448827 1.93169 -0.271582 -1.32038e-09 1.92662e-08 2.99718e-09 -2.26948e-09 3.32597e-08 5.17869e-09 -1.32038e-09 1.92662e-08 2.99718e-09 -7.73091 5.47488 -0.417314 -1.32038e-09 1.92662e-08 2.99717e-09 -2.90554 0.965183 -0.102902 -1.32038e-09 1.92662e-08 2.99718e-09 -10.2786 0.731801 -0.0259123 -1.32038e-09 1.92662e-08 2.99717e-09 -2.22167 -0.733487 0.20892 -2.03217e-16 0.0 -3.88251e-19 -6.68232 -14.0766 -5.02428 0.00430292 8.10624 0.277148 -6.17146 -16.7477 -17.7692 2.03217e-16 0.0 3.88251e-19 5.32513 -33.2846 -8.21988 0.177498 31.5618 -0.620941 1.60615 -12.6444 5.70773
-1.53266 83.5658 32.6659 -1.4728 9.5473 15.395 9.6052 24.5997 -5.74521 7.91438 -7.81039 -0.466495 -1.45617 18.1292 -13.1999 25.5313 -24.2938 -20.3992 -0.0 0.0 0.0 -0.0 0.0 0.0 2.32207e-14 -1.75355e-13 -8.29196e-14 1.93004 14.0016 71.6385 -27.1417 -26.8899 62.3412 -0.0352918 5.27311 0.743279 -1.36472e-09 -8.75105e-10 2.417e-09 -2.35439e-09 -1.50209e-09 4.18926e-09 -1.36472e-09 -8.75103e-10 2.41698e-09 7.73091 5.47488 0.417314 -1.36472e-09 -8.75105e-10 2.417e-09 2.90554 0.965183 0.102902 -1.36472e-09 -8.75106e-10 2.417e-09 10.2786 0.731801 0.0259123 -1.36473e-09 -8.75103e-10 2.41701e-09 2.22167 -0.733487 -0.20892 2.32254e-14 -1.7535e-13 -8.3106e-14 -62.738 46.7281 -24.8836 27.7279 -41.6682 -86.9589 0.00372072 1.74666 -0.245553 -7.83691e-10 1.58826e-08 2.66405e-09 -1.34136e-09 2.73896e-08 4.59967e-09 -7.83694e-10 1.58826e-08 2.66406e-09 -7.73091 5.47488 -0.417314 -7.8369e-10 1.58826e-08 2.66404e-09 -2.90554 0.965183 -0.102902 -7.83694e-10 1.58826e-08 2.66405e-09 -10.2786 0.731801 -0.0259123 -7.83687e-10 1.58826e-08 2.66404e-09 -2.22167 -0.733487 0.20892 -2.03217e-16 0.0 -3.88251e-19 -6.6911 -14.1693 -5.00532 0.00351328 8.01867 0.275613 -6.17237 -16.7313 -17.7922 2.03217e-16 0.0 3.88251e-19 5.32723 -33.4107 -8.16423 0.176988 31.5486 -0.620704 1.61662 -12.6304 5.74117
-1.53119 83.5718 32.6693 -1.4526 9.5508 15.5445 9.63523 24.5531 -5.66946 7.74533 -7.84375 -0.454693 -1.47379 17.8387 -13.0771 24.3964 -25.424 -20.2299 -0.0 0.0 0.0 -0.0 0.0 0.0 3.4377e-14 -1.49493e-13 -7.62339e-14 3.22421 14.1533 70.6003 -27.5487 -28.3835 64.6742 -0.0288587 4.84348 0.68235 -1.91696e-09 -2.25686e-09 2.30926e-09 -3.30901e-09 -3.8914e-09 4.00536e-09 -1.91695e-09 -2.25686e-09 2.30924e-09 7.73091 5.47488 0.417314 -1.91696e-09 -2.25686e-09 2.30926e-09 2.90554 0.965183 0.102902 -1.91696e-09 -2.25686e-09 2.30926e-09 10.2786 0.731801 0.0259123 -1.91696e-09 -2.25686e-09 2.30926e-09 2.22167 -0.733487 -0.20892 3.44046e-14 -1.49479e-13 -7.64327e-14 -62.8885 46.7639 -24.5985 27.6696 -41.8891 -87.3791 0.00348114 1.68444 -0.236802 -2.26548e-10 1.09557e-08 2.07095e-09 -3.7927e-10 1.88598e-08 3.57195e-09 -2.26551e-10 1.09557e-08 2.07096e-09 -7.73091 5.47488 -0.417314 -2.26546e-10 1.09557e-08 2.07095e-09 -2.90554 0.965183 -0.102902 -2.26551e-10 1.09557e-08 2.07096e-09 -10.2786 0.731801 -0.0259123 -2.26544e-10 1.09557e-08 2.07095e-09 -2.22167 -0.733487 0.20892 -2.03217e-16 0.0 -3.88251e-19 -6.69352 -14.2623 -4.98106 0.00316999 7.97183 0.274687 -6.17065 -16.7156 -17.803 2.03217e-16 0.0 3.88251e-19 5.33975 -33.5131 -8.11172 0.176635 31.5342 -0.620466 1.62385 -12.6202 5.76426
